<svg width="1033" height="49" viewBox="0 0 1033 49" fill="none" xmlns="http://www.w3.org/2000/svg">
<line x1="1013" y1="39.0107" x2="13.9996" y2="39.0107" stroke="#6D758F"/>
<path d="M858.765 6.505V16H857.94V7.345L855.885 8.485L855.45 7.945L857.94 6.505H858.765ZM866.655 11.71C866.015 12.35 865.305 12.67 864.525 12.67C863.715 12.67 863.055 12.41 862.545 11.89C861.995 11.34 861.72 10.555 861.72 9.535C861.72 8.605 862.005 7.825 862.575 7.195C863.105 6.615 863.755 6.325 864.525 6.325C865.545 6.325 866.33 6.835 866.88 7.855C867.32 8.675 867.54 9.705 867.54 10.945C867.54 12.595 867.175 13.915 866.445 14.905C865.815 15.755 865.045 16.18 864.135 16.18C863.395 16.18 862.71 15.945 862.08 15.475L862.38 15.04C862.92 15.31 863.485 15.445 864.075 15.445C864.785 15.445 865.375 15.115 865.845 14.455C866.315 13.785 866.585 12.87 866.655 11.71ZM866.685 10.78C866.675 9.56 866.445 8.61 865.995 7.93C865.615 7.35 865.125 7.06 864.525 7.06C863.935 7.06 863.47 7.28 863.13 7.72C862.79 8.16 862.62 8.765 862.62 9.535C862.62 10.305 862.8 10.91 863.16 11.35C863.53 11.79 864.04 12.01 864.69 12.01C865.07 12.01 865.445 11.895 865.815 11.665C866.185 11.435 866.475 11.14 866.685 10.78ZM873.528 7.24H869.268V6.505H874.323V7.33L870.588 16H869.718L873.528 7.24ZM878.899 6.325C879.959 6.325 880.799 6.865 881.419 7.945C881.939 8.845 882.199 9.955 882.199 11.275C882.199 12.855 881.869 14.09 881.209 14.98C880.619 15.78 879.849 16.18 878.899 16.18C877.789 16.18 876.934 15.665 876.334 14.635C875.824 13.765 875.569 12.645 875.569 11.275C875.569 9.745 875.909 8.515 876.589 7.585C877.189 6.745 877.959 6.325 878.899 6.325ZM878.869 7.06C878.129 7.06 877.544 7.43 877.114 8.17C876.684 8.91 876.469 9.915 876.469 11.185C876.469 12.565 876.699 13.635 877.159 14.395C877.579 15.095 878.149 15.445 878.869 15.445C879.699 15.445 880.329 14.995 880.759 14.095C881.119 13.345 881.299 12.375 881.299 11.185C881.299 9.835 881.059 8.79 880.579 8.05C880.149 7.39 879.579 7.06 878.869 7.06Z" fill="#5B637E"/>
<circle cx="3.5" cy="3.5" r="3.5" transform="matrix(-1 0 0 1 869 35)" fill="#6D758F"/>
<path d="M714.765 6.505V16H713.94V7.345L711.885 8.485L711.45 7.945L713.94 6.505H714.765ZM722.655 11.71C722.015 12.35 721.305 12.67 720.525 12.67C719.715 12.67 719.055 12.41 718.545 11.89C717.995 11.34 717.72 10.555 717.72 9.535C717.72 8.605 718.005 7.825 718.575 7.195C719.105 6.615 719.755 6.325 720.525 6.325C721.545 6.325 722.33 6.835 722.88 7.855C723.32 8.675 723.54 9.705 723.54 10.945C723.54 12.595 723.175 13.915 722.445 14.905C721.815 15.755 721.045 16.18 720.135 16.18C719.395 16.18 718.71 15.945 718.08 15.475L718.38 15.04C718.92 15.31 719.485 15.445 720.075 15.445C720.785 15.445 721.375 15.115 721.845 14.455C722.315 13.785 722.585 12.87 722.655 11.71ZM722.685 10.78C722.675 9.56 722.445 8.61 721.995 7.93C721.615 7.35 721.125 7.06 720.525 7.06C719.935 7.06 719.47 7.28 719.13 7.72C718.79 8.16 718.62 8.765 718.62 9.535C718.62 10.305 718.8 10.91 719.16 11.35C719.53 11.79 720.04 12.01 720.69 12.01C721.07 12.01 721.445 11.895 721.815 11.665C722.185 11.435 722.475 11.14 722.685 10.78ZM729.708 10.87C730.298 11.04 730.773 11.355 731.133 11.815C731.493 12.275 731.673 12.795 731.673 13.375C731.673 14.225 731.348 14.92 730.698 15.46C730.138 15.94 729.463 16.18 728.673 16.18C727.783 16.18 727.053 15.875 726.483 15.265C725.983 14.745 725.733 14.12 725.733 13.39C725.733 12.79 725.913 12.26 726.273 11.8C726.633 11.34 727.118 11.02 727.728 10.84C726.588 10.29 726.018 9.56 726.018 8.65C726.018 7.94 726.283 7.36 726.813 6.91C727.313 6.49 727.948 6.28 728.718 6.28C729.568 6.28 730.248 6.545 730.758 7.075C731.178 7.525 731.388 8.065 731.388 8.695C731.388 9.705 730.828 10.43 729.708 10.87ZM728.703 10.63C729.233 10.52 729.663 10.28 729.993 9.91C730.333 9.54 730.503 9.125 730.503 8.665C730.503 8.175 730.338 7.785 730.008 7.495C729.678 7.205 729.238 7.06 728.688 7.06C728.168 7.06 727.743 7.2 727.413 7.48C727.083 7.76 726.918 8.125 726.918 8.575C726.918 9.615 727.513 10.3 728.703 10.63ZM728.628 11.11C728.058 11.2 727.583 11.46 727.203 11.89C726.823 12.31 726.633 12.795 726.633 13.345C726.633 13.935 726.828 14.435 727.218 14.845C727.608 15.245 728.093 15.445 728.673 15.445C729.283 15.445 729.783 15.25 730.173 14.86C730.573 14.47 730.773 13.975 730.773 13.375C730.773 12.795 730.568 12.295 730.158 11.875C729.758 11.445 729.248 11.19 728.628 11.11ZM736.891 6.325C737.951 6.325 738.791 6.865 739.411 7.945C739.931 8.845 740.191 9.955 740.191 11.275C740.191 12.855 739.861 14.09 739.201 14.98C738.611 15.78 737.841 16.18 736.891 16.18C735.781 16.18 734.926 15.665 734.326 14.635C733.816 13.765 733.561 12.645 733.561 11.275C733.561 9.745 733.901 8.515 734.581 7.585C735.181 6.745 735.951 6.325 736.891 6.325ZM736.861 7.06C736.121 7.06 735.536 7.43 735.106 8.17C734.676 8.91 734.461 9.915 734.461 11.185C734.461 12.565 734.691 13.635 735.151 14.395C735.571 15.095 736.141 15.445 736.861 15.445C737.691 15.445 738.321 14.995 738.751 14.095C739.111 13.345 739.291 12.375 739.291 11.185C739.291 9.835 739.051 8.79 738.571 8.05C738.141 7.39 737.571 7.06 736.861 7.06Z" fill="#5B637E"/>
<circle cx="3.5" cy="3.5" r="3.5" transform="matrix(-1 0 0 1 727 35)" fill="#6D758F"/>
<path d="M572.765 6.505V16H571.94V7.345L569.885 8.485L569.45 7.945L571.94 6.505H572.765ZM580.655 11.71C580.015 12.35 579.305 12.67 578.525 12.67C577.715 12.67 577.055 12.41 576.545 11.89C575.995 11.34 575.72 10.555 575.72 9.535C575.72 8.605 576.005 7.825 576.575 7.195C577.105 6.615 577.755 6.325 578.525 6.325C579.545 6.325 580.33 6.835 580.88 7.855C581.32 8.675 581.54 9.705 581.54 10.945C581.54 12.595 581.175 13.915 580.445 14.905C579.815 15.755 579.045 16.18 578.135 16.18C577.395 16.18 576.71 15.945 576.08 15.475L576.38 15.04C576.92 15.31 577.485 15.445 578.075 15.445C578.785 15.445 579.375 15.115 579.845 14.455C580.315 13.785 580.585 12.87 580.655 11.71ZM580.685 10.78C580.675 9.56 580.445 8.61 579.995 7.93C579.615 7.35 579.125 7.06 578.525 7.06C577.935 7.06 577.47 7.28 577.13 7.72C576.79 8.16 576.62 8.765 576.62 9.535C576.62 10.305 576.8 10.91 577.16 11.35C577.53 11.79 578.04 12.01 578.69 12.01C579.07 12.01 579.445 11.895 579.815 11.665C580.185 11.435 580.475 11.14 580.685 10.78ZM588.668 11.71C588.028 12.35 587.318 12.67 586.538 12.67C585.728 12.67 585.068 12.41 584.558 11.89C584.008 11.34 583.733 10.555 583.733 9.535C583.733 8.605 584.018 7.825 584.588 7.195C585.118 6.615 585.768 6.325 586.538 6.325C587.558 6.325 588.343 6.835 588.893 7.855C589.333 8.675 589.553 9.705 589.553 10.945C589.553 12.595 589.188 13.915 588.458 14.905C587.828 15.755 587.058 16.18 586.148 16.18C585.408 16.18 584.723 15.945 584.093 15.475L584.393 15.04C584.933 15.31 585.498 15.445 586.088 15.445C586.798 15.445 587.388 15.115 587.858 14.455C588.328 13.785 588.598 12.87 588.668 11.71ZM588.698 10.78C588.688 9.56 588.458 8.61 588.008 7.93C587.628 7.35 587.138 7.06 586.538 7.06C585.948 7.06 585.483 7.28 585.143 7.72C584.803 8.16 584.633 8.765 584.633 9.535C584.633 10.305 584.813 10.91 585.173 11.35C585.543 11.79 586.053 12.01 586.703 12.01C587.083 12.01 587.458 11.895 587.828 11.665C588.198 11.435 588.488 11.14 588.698 10.78ZM594.7 6.325C595.76 6.325 596.6 6.865 597.22 7.945C597.74 8.845 598 9.955 598 11.275C598 12.855 597.67 14.09 597.01 14.98C596.42 15.78 595.65 16.18 594.7 16.18C593.59 16.18 592.735 15.665 592.135 14.635C591.625 13.765 591.37 12.645 591.37 11.275C591.37 9.745 591.71 8.515 592.39 7.585C592.99 6.745 593.76 6.325 594.7 6.325ZM594.67 7.06C593.93 7.06 593.345 7.43 592.915 8.17C592.485 8.91 592.27 9.915 592.27 11.185C592.27 12.565 592.5 13.635 592.96 14.395C593.38 15.095 593.95 15.445 594.67 15.445C595.5 15.445 596.13 14.995 596.56 14.095C596.92 13.345 597.1 12.375 597.1 11.185C597.1 9.835 596.86 8.79 596.38 8.05C595.95 7.39 595.38 7.06 594.67 7.06Z" fill="#5B637E"/>
<circle cx="3.5" cy="3.5" r="3.5" transform="matrix(-1 0 0 1 586 35)" fill="#6D758F"/>
<path d="M425.75 16V15.235L428.66 12.07C429.77 10.87 430.325 9.825 430.325 8.935C430.325 8.365 430.145 7.91 429.785 7.57C429.425 7.23 428.935 7.06 428.315 7.06C427.605 7.06 426.945 7.26 426.335 7.66L425.975 7.18C426.755 6.61 427.625 6.325 428.585 6.325C429.395 6.325 430.055 6.595 430.565 7.135C431.005 7.615 431.225 8.215 431.225 8.935C431.225 9.495 431.055 10.055 430.715 10.615C430.375 11.165 429.71 11.98 428.72 13.06L426.68 15.265H431.075V16H425.75ZM436.257 6.325C437.317 6.325 438.157 6.865 438.777 7.945C439.297 8.845 439.557 9.955 439.557 11.275C439.557 12.855 439.227 14.09 438.567 14.98C437.977 15.78 437.207 16.18 436.257 16.18C435.147 16.18 434.292 15.665 433.692 14.635C433.182 13.765 432.927 12.645 432.927 11.275C432.927 9.745 433.267 8.515 433.947 7.585C434.547 6.745 435.317 6.325 436.257 6.325ZM436.227 7.06C435.487 7.06 434.902 7.43 434.472 8.17C434.042 8.91 433.827 9.915 433.827 11.185C433.827 12.565 434.057 13.635 434.517 14.395C434.937 15.095 435.507 15.445 436.227 15.445C437.057 15.445 437.687 14.995 438.117 14.095C438.477 13.345 438.657 12.375 438.657 11.185C438.657 9.835 438.417 8.79 437.937 8.05C437.507 7.39 436.937 7.06 436.227 7.06ZM444.328 6.325C445.388 6.325 446.228 6.865 446.848 7.945C447.368 8.845 447.628 9.955 447.628 11.275C447.628 12.855 447.298 14.09 446.638 14.98C446.048 15.78 445.278 16.18 444.328 16.18C443.218 16.18 442.363 15.665 441.763 14.635C441.253 13.765 440.998 12.645 440.998 11.275C440.998 9.745 441.338 8.515 442.018 7.585C442.618 6.745 443.388 6.325 444.328 6.325ZM444.298 7.06C443.558 7.06 442.973 7.43 442.543 8.17C442.113 8.91 441.898 9.915 441.898 11.185C441.898 12.565 442.128 13.635 442.588 14.395C443.008 15.095 443.578 15.445 444.298 15.445C445.128 15.445 445.758 14.995 446.188 14.095C446.548 13.345 446.728 12.375 446.728 11.185C446.728 9.835 446.488 8.79 446.008 8.05C445.578 7.39 445.008 7.06 444.298 7.06ZM452.4 6.325C453.46 6.325 454.3 6.865 454.92 7.945C455.44 8.845 455.7 9.955 455.7 11.275C455.7 12.855 455.37 14.09 454.71 14.98C454.12 15.78 453.35 16.18 452.4 16.18C451.29 16.18 450.435 15.665 449.835 14.635C449.325 13.765 449.07 12.645 449.07 11.275C449.07 9.745 449.41 8.515 450.09 7.585C450.69 6.745 451.46 6.325 452.4 6.325ZM452.37 7.06C451.63 7.06 451.045 7.43 450.615 8.17C450.185 8.91 449.97 9.915 449.97 11.185C449.97 12.565 450.2 13.635 450.66 14.395C451.08 15.095 451.65 15.445 452.37 15.445C453.2 15.445 453.83 14.995 454.26 14.095C454.62 13.345 454.8 12.375 454.8 11.185C454.8 9.835 454.56 8.79 454.08 8.05C453.65 7.39 453.08 7.06 452.37 7.06Z" fill="#5B637E"/>
<circle cx="3.5" cy="3.5" r="3.5" transform="matrix(-1 0 0 1 443 35)" fill="#6D758F"/>
<path d="M286.75 16V15.235L289.66 12.07C290.77 10.87 291.325 9.825 291.325 8.935C291.325 8.365 291.145 7.91 290.785 7.57C290.425 7.23 289.935 7.06 289.315 7.06C288.605 7.06 287.945 7.26 287.335 7.66L286.975 7.18C287.755 6.61 288.625 6.325 289.585 6.325C290.395 6.325 291.055 6.595 291.565 7.135C292.005 7.615 292.225 8.215 292.225 8.935C292.225 9.495 292.055 10.055 291.715 10.615C291.375 11.165 290.71 11.98 289.72 13.06L287.68 15.265H292.075V16H286.75ZM297.257 6.325C298.317 6.325 299.157 6.865 299.777 7.945C300.297 8.845 300.557 9.955 300.557 11.275C300.557 12.855 300.227 14.09 299.567 14.98C298.977 15.78 298.207 16.18 297.257 16.18C296.147 16.18 295.292 15.665 294.692 14.635C294.182 13.765 293.927 12.645 293.927 11.275C293.927 9.745 294.267 8.515 294.947 7.585C295.547 6.745 296.317 6.325 297.257 6.325ZM297.227 7.06C296.487 7.06 295.902 7.43 295.472 8.17C295.042 8.91 294.827 9.915 294.827 11.185C294.827 12.565 295.057 13.635 295.517 14.395C295.937 15.095 296.507 15.445 297.227 15.445C298.057 15.445 298.687 14.995 299.117 14.095C299.477 13.345 299.657 12.375 299.657 11.185C299.657 9.835 299.417 8.79 298.937 8.05C298.507 7.39 297.937 7.06 297.227 7.06ZM305.043 6.505V16H304.218V7.345L302.163 8.485L301.728 7.945L304.218 6.505H305.043ZM310.953 6.325C312.013 6.325 312.853 6.865 313.473 7.945C313.993 8.845 314.253 9.955 314.253 11.275C314.253 12.855 313.923 14.09 313.263 14.98C312.673 15.78 311.903 16.18 310.953 16.18C309.843 16.18 308.988 15.665 308.388 14.635C307.878 13.765 307.623 12.645 307.623 11.275C307.623 9.745 307.963 8.515 308.643 7.585C309.243 6.745 310.013 6.325 310.953 6.325ZM310.923 7.06C310.183 7.06 309.598 7.43 309.168 8.17C308.738 8.91 308.523 9.915 308.523 11.185C308.523 12.565 308.753 13.635 309.213 14.395C309.633 15.095 310.203 15.445 310.923 15.445C311.753 15.445 312.383 14.995 312.813 14.095C313.173 13.345 313.353 12.375 313.353 11.185C313.353 9.835 313.113 8.79 312.633 8.05C312.203 7.39 311.633 7.06 310.923 7.06Z" fill="#5B637E"/>
<circle cx="3.5" cy="3.5" r="3.5" transform="matrix(-1 0 0 1 302 35)" fill="#6D758F"/>
<path d="M144.75 16V15.235L147.66 12.07C148.77 10.87 149.325 9.825 149.325 8.935C149.325 8.365 149.145 7.91 148.785 7.57C148.425 7.23 147.935 7.06 147.315 7.06C146.605 7.06 145.945 7.26 145.335 7.66L144.975 7.18C145.755 6.61 146.625 6.325 147.585 6.325C148.395 6.325 149.055 6.595 149.565 7.135C150.005 7.615 150.225 8.215 150.225 8.935C150.225 9.495 150.055 10.055 149.715 10.615C149.375 11.165 148.71 11.98 147.72 13.06L145.68 15.265H150.075V16H144.75ZM155.257 6.325C156.317 6.325 157.157 6.865 157.777 7.945C158.297 8.845 158.557 9.955 158.557 11.275C158.557 12.855 158.227 14.09 157.567 14.98C156.977 15.78 156.207 16.18 155.257 16.18C154.147 16.18 153.292 15.665 152.692 14.635C152.182 13.765 151.927 12.645 151.927 11.275C151.927 9.745 152.267 8.515 152.947 7.585C153.547 6.745 154.317 6.325 155.257 6.325ZM155.227 7.06C154.487 7.06 153.902 7.43 153.472 8.17C153.042 8.91 152.827 9.915 152.827 11.185C152.827 12.565 153.057 13.635 153.517 14.395C153.937 15.095 154.507 15.445 155.227 15.445C156.057 15.445 156.687 14.995 157.117 14.095C157.477 13.345 157.657 12.375 157.657 11.185C157.657 9.835 157.417 8.79 156.937 8.05C156.507 7.39 155.937 7.06 155.227 7.06ZM163.043 6.505V16H162.218V7.345L160.163 8.485L159.728 7.945L162.218 6.505H163.043ZM168.953 6.325C170.013 6.325 170.853 6.865 171.473 7.945C171.993 8.845 172.253 9.955 172.253 11.275C172.253 12.855 171.923 14.09 171.263 14.98C170.673 15.78 169.903 16.18 168.953 16.18C167.843 16.18 166.988 15.665 166.388 14.635C165.878 13.765 165.623 12.645 165.623 11.275C165.623 9.745 165.963 8.515 166.643 7.585C167.243 6.745 168.013 6.325 168.953 6.325ZM168.923 7.06C168.183 7.06 167.598 7.43 167.168 8.17C166.738 8.91 166.523 9.915 166.523 11.185C166.523 12.565 166.753 13.635 167.213 14.395C167.633 15.095 168.203 15.445 168.923 15.445C169.753 15.445 170.383 14.995 170.813 14.095C171.173 13.345 171.353 12.375 171.353 11.185C171.353 9.835 171.113 8.79 170.633 8.05C170.203 7.39 169.633 7.06 168.923 7.06Z" fill="#5B637E"/>
<circle cx="3.5" cy="3.5" r="3.5" transform="matrix(-1 0 0 1 160 35)" fill="#6D758F"/>
<path d="M0.75 16V15.235L3.66 12.07C4.77 10.87 5.325 9.825 5.325 8.935C5.325 8.365 5.145 7.91 4.785 7.57C4.425 7.23 3.935 7.06 3.315 7.06C2.605 7.06 1.945 7.26 1.335 7.66L0.975 7.18C1.755 6.61 2.625 6.325 3.585 6.325C4.395 6.325 5.055 6.595 5.565 7.135C6.005 7.615 6.225 8.215 6.225 8.935C6.225 9.495 6.055 10.055 5.715 10.615C5.375 11.165 4.71 11.98 3.72 13.06L1.68 15.265H6.075V16H0.75ZM11.257 6.325C12.317 6.325 13.157 6.865 13.777 7.945C14.297 8.845 14.557 9.955 14.557 11.275C14.557 12.855 14.227 14.09 13.567 14.98C12.977 15.78 12.207 16.18 11.257 16.18C10.147 16.18 9.29203 15.665 8.69203 14.635C8.18203 13.765 7.92703 12.645 7.92703 11.275C7.92703 9.745 8.26703 8.515 8.94703 7.585C9.54703 6.745 10.317 6.325 11.257 6.325ZM11.227 7.06C10.487 7.06 9.90203 7.43 9.47203 8.17C9.04203 8.91 8.82703 9.915 8.82703 11.185C8.82703 12.565 9.05703 13.635 9.51703 14.395C9.93703 15.095 10.507 15.445 11.227 15.445C12.057 15.445 12.687 14.995 13.117 14.095C13.477 13.345 13.657 12.375 13.657 11.185C13.657 9.835 13.417 8.79 12.937 8.05C12.507 7.39 11.937 7.06 11.227 7.06ZM16.0283 16V15.235L18.9383 12.07C20.0483 10.87 20.6033 9.825 20.6033 8.935C20.6033 8.365 20.4233 7.91 20.0633 7.57C19.7033 7.23 19.2133 7.06 18.5933 7.06C17.8833 7.06 17.2233 7.26 16.6133 7.66L16.2533 7.18C17.0333 6.61 17.9033 6.325 18.8633 6.325C19.6733 6.325 20.3333 6.595 20.8433 7.135C21.2833 7.615 21.5033 8.215 21.5033 8.935C21.5033 9.495 21.3333 10.055 20.9933 10.615C20.6533 11.165 19.9883 11.98 18.9983 13.06L16.9583 15.265H21.3533V16H16.0283ZM28.6204 7.24H24.8854V10.165C25.2454 10.105 25.6554 10.075 26.1154 10.075C27.1054 10.075 27.8904 10.36 28.4704 10.93C29.0104 11.47 29.2804 12.205 29.2804 13.135C29.2804 14.105 28.9304 14.885 28.2304 15.475C27.6604 15.945 26.9904 16.18 26.2204 16.18C25.1904 16.18 24.3104 15.89 23.5804 15.31L23.8804 14.86C24.4804 15.25 25.1754 15.445 25.9654 15.445C26.7254 15.445 27.3154 15.24 27.7354 14.83C28.1654 14.42 28.3804 13.85 28.3804 13.12C28.3804 12.37 28.1504 11.785 27.6904 11.365C27.2304 10.945 26.5954 10.735 25.7854 10.735C25.4354 10.735 24.9454 10.79 24.3154 10.9C24.2354 10.91 24.1504 10.925 24.0604 10.945V6.505H28.6204V7.24Z" fill="#5B637E"/>
<circle cx="3.5" cy="3.5" r="3.5" transform="matrix(-1 0 0 1 17 35)" fill="#6D758F"/>
<path d="M991.936 0.808V16H988.792V4.384C988.568 4.528 988.24 4.728 987.808 4.984C987.184 5.352 986.736 5.632 986.464 5.824C986.256 5.472 985.904 4.888 985.408 4.072L985.264 3.856C985.152 3.648 985.064 3.496 985 3.4C985.512 3.032 986.32 2.48 987.424 1.744C988 1.36 988.456 1.048 988.792 0.808H991.936ZM1002.64 10C1002.1 10.496 1001.29 10.744 1000.22 10.744C998.779 10.744 997.627 10.328 996.763 9.496C995.867 8.632 995.419 7.376 995.419 5.728C995.419 4.336 995.875 3.128 996.787 2.104C997.731 1.048 999.003 0.519999 1000.6 0.519999C1002.7 0.519999 1004.18 1.44 1005.04 3.28C1005.59 4.448 1005.86 5.928 1005.86 7.72C1005.86 13.432 1003.92 16.288 1000.03 16.288C999.291 16.288 998.539 16.152 997.771 15.88C997.019 15.592 996.419 15.232 995.971 14.8L997.051 12.832C998.107 13.344 999.067 13.6 999.931 13.6C1000.75 13.6 1001.4 13.272 1001.9 12.616C1002.4 11.96 1002.64 11.088 1002.64 10ZM1002.67 7.768C1002.59 6.104 1002.45 4.968 1002.26 4.36C1001.96 3.432 1001.42 2.968 1000.65 2.968C1000.12 2.968 999.667 3.24 999.283 3.784C998.899 4.328 998.707 4.976 998.707 5.728C998.707 7.568 999.443 8.488 1000.92 8.488C1001.6 8.488 1002.19 8.248 1002.67 7.768ZM1010.41 6.808C1010.95 6.312 1011.76 6.064 1012.83 6.064C1014.27 6.064 1015.43 6.48 1016.29 7.312C1017.19 8.176 1017.63 9.432 1017.63 11.08C1017.63 12.472 1017.18 13.68 1016.27 14.704C1015.32 15.76 1014.05 16.288 1012.45 16.288C1010.35 16.288 1008.87 15.368 1008.01 13.528C1007.47 12.36 1007.19 10.88 1007.19 9.088C1007.19 3.376 1009.14 0.519999 1013.03 0.519999C1013.76 0.519999 1014.51 0.663999 1015.26 0.951999C1016.03 1.224 1016.63 1.576 1017.08 2.008L1016 3.976C1014.95 3.464 1013.99 3.208 1013.12 3.208C1012.31 3.208 1011.65 3.536 1011.15 4.192C1010.66 4.848 1010.41 5.72 1010.41 6.808ZM1010.39 9.04C1010.47 10.704 1010.6 11.84 1010.79 12.448C1011.1 13.376 1011.63 13.84 1012.4 13.84C1012.93 13.84 1013.39 13.568 1013.77 13.024C1014.15 12.48 1014.35 11.832 1014.35 11.08C1014.35 9.24 1013.61 8.32 1012.14 8.32C1011.45 8.32 1010.87 8.56 1010.39 9.04ZM1025.42 0.519999C1027.28 0.519999 1028.77 1.408 1029.89 3.184C1030.83 4.656 1031.3 6.408 1031.3 8.44C1031.3 10.888 1030.7 12.848 1029.5 14.32C1028.45 15.632 1027.09 16.288 1025.42 16.288C1023.52 16.288 1022.03 15.44 1020.96 13.744C1020.06 12.336 1019.62 10.568 1019.62 8.44C1019.62 6.072 1020.21 4.128 1021.39 2.608C1022.46 1.216 1023.81 0.519999 1025.42 0.519999ZM1025.47 3.208C1023.74 3.208 1022.88 4.904 1022.88 8.296C1022.88 10.008 1023.13 11.352 1023.62 12.328C1024.07 13.208 1024.66 13.648 1025.4 13.648C1026.22 13.648 1026.86 13.176 1027.32 12.232C1027.8 11.272 1028.04 9.96 1028.04 8.296C1028.04 4.904 1027.18 3.208 1025.47 3.208Z" fill="#444A61"/>
<circle cx="10" cy="10" r="10" transform="matrix(-1 0 0 1 1019 29)" fill="#444A61"/>
</svg>
